<?xml version="1.0" standalone="no"?>
<!DOCTYPE svg PUBLIC "-//W3C//DTD SVG 20010904//EN"
 "http://www.w3.org/TR/2001/REC-SVG-20010904/DTD/svg10.dtd">
<svg version="1.0" xmlns="http://www.w3.org/2000/svg"
 width="466.000000pt" height="176.000000pt" viewBox="0 0 466.000000 176.000000"
 preserveAspectRatio="xMidYMid meet">

<g transform="translate(0.000000,176.000000) scale(0.100000,-0.100000)"
fill="#ffff" stroke="none">
<path d="M3400 1685 c0 -8 7 -15 15 -15 8 0 15 7 15 15 0 8 -7 15 -15 15 -8 0
-15 -7 -15 -15z"/>
<path d="M3460 1679 c0 -24 23 -21 28 4 2 10 -3 17 -12 17 -10 0 -16 -9 -16
-21z"/>
<path d="M3380 1622 c-32 -15 -35 -21 -38 -66 -3 -43 0 -53 27 -80 22 -23 33
-45 37 -80 l7 -48 38 4 c32 3 39 0 39 -14 0 -12 -8 -18 -22 -18 -49 0 -98 -20
-98 -40 0 -18 7 -20 60 -20 32 0 71 5 85 12 14 6 28 8 32 5 11 -12 -28 -46
-56 -49 l-26 -3 39 -38 c21 -21 55 -46 75 -57 l37 -19 13 34 c13 36 57 75 85
75 25 0 19 -17 -14 -36 -41 -25 -57 -67 -40 -108 7 -17 15 -47 17 -67 4 -27
12 -40 30 -48 45 -21 89 25 100 104 4 30 11 45 20 45 11 0 14 -11 12 -44 -3
-39 1 -48 28 -74 18 -16 34 -41 37 -55 3 -15 9 -39 12 -54 9 -43 44 -84 88
-103 22 -10 44 -16 48 -14 4 3 8 31 8 62 -1 80 -27 131 -92 181 -62 46 -93 95
-109 172 -22 104 -64 150 -177 193 -88 34 -126 74 -136 142 -9 62 -29 92 -71
110 -44 18 -53 18 -95 -4z m20 -33 c0 -5 -7 -9 -15 -9 -15 0 -20 12 -9 23 8 8
24 -1 24 -14z"/>
<path d="M3830 1600 c-22 -42 13 -80 60 -65 19 6 25 22 20 55 -5 34 -63 41
-80 10z"/>
<path d="M3270 1575 c-8 -10 -30 -15 -67 -15 -63 0 -73 -13 -49 -64 9 -19 16
-39 16 -45 0 -7 31 -11 91 -11 l90 0 -20 28 c-11 16 -21 48 -23 72 -3 47 -17
60 -38 35z"/>
<path d="M3640 1545 c-15 -18 2 -45 30 -45 23 0 34 28 19 46 -15 18 -33 18
-49 -1z"/>
<path d="M3984 1356 c-10 -26 4 -48 28 -44 17 2 23 10 23 28 0 18 -6 26 -23
28 -13 2 -25 -3 -28 -12z"/>
<path d="M3266 1327 c-18 -18 -18 -21 -3 -32 10 -7 17 -17 17 -24 0 -17 50
-13 57 5 4 10 -5 26 -23 44 l-29 27 -19 -20z"/>
<path d="M3140 1261 c-7 -15 -6 -23 6 -35 8 -9 17 -16 19 -16 2 0 11 7 19 16
18 18 6 54 -19 54 -8 0 -19 -9 -25 -19z"/>
<path d="M3330 1161 c-14 -27 -13 -37 6 -55 23 -23 51 -20 69 8 13 19 14 29 5
45 -14 28 -65 29 -80 2z"/>
<path d="M715 1074 c-41 -11 -100 -36 -127 -56 -30 -21 -58 -18 -58 6 0 17
-23 27 -40 16 -10 -6 -11 -77 -3 -371 6 -200 13 -372 18 -381 4 -10 15 -18 24
-18 35 0 41 21 41 151 l0 127 48 -15 c190 -59 441 92 442 266 0 104 -60 210
-144 253 -40 21 -155 33 -201 22z m131 -103 c79 -36 124 -117 110 -196 -9 -46
-61 -104 -123 -135 -58 -30 -169 -35 -218 -10 l-30 15 0 110 c1 126 13 159 70
195 70 43 128 50 191 21z"/>
<path d="M3005 1074 c-41 -11 -100 -36 -127 -56 -30 -21 -58 -18 -58 6 0 17
-23 27 -40 16 -10 -6 -11 -77 -3 -371 6 -200 13 -372 18 -381 4 -10 15 -18 24
-18 35 0 41 21 41 151 l0 127 48 -15 c191 -59 441 92 442 268 0 102 -68 223
-144 254 -41 17 -163 28 -201 19z m131 -103 c79 -36 124 -117 110 -196 -9 -46
-61 -104 -123 -135 -58 -30 -169 -35 -218 -10 l-30 15 0 110 c1 126 13 159 70
195 70 43 128 50 191 21z"/>
<path d="M1162 948 c-16 -16 -17 -630 -2 -659 15 -28 49 -24 60 7 11 28 12
220 2 477 -6 133 -10 170 -22 177 -20 13 -24 12 -38 -2z"/>
<path d="M3442 937 c-23 -25 -29 -52 -12 -62 6 -4 10 -108 10 -280 0 -285 5
-325 41 -325 39 0 42 30 36 347 -4 185 -10 311 -17 323 -14 26 -32 25 -58 -3z"/>
<path d="M3590 940 c0 -11 67 -80 78 -80 5 0 16 15 24 34 16 33 16 34 -8 45
-30 14 -94 15 -94 1z"/>
<path d="M1986 818 c-8 -18 -19 -59 -26 -90 -11 -58 -30 -88 -54 -88 -8 0 -19
-7 -26 -15 -10 -13 -10 -19 5 -35 10 -11 24 -20 30 -20 7 0 19 -35 30 -87 27
-140 69 -200 144 -210 47 -6 125 12 143 34 8 11 9 19 1 31 -8 13 -22 16 -66
14 -30 -2 -65 2 -77 8 -30 16 -60 89 -63 152 l-2 52 79 15 c132 26 131 77 -2
88 l-72 6 7 51 c14 95 11 121 -15 124 -17 3 -25 -4 -36 -30z"/>
<path d="M4230 769 c-61 -25 -110 -94 -110 -158 0 -51 42 -102 97 -119 57 -18
143 -70 143 -88 0 -20 -65 -46 -114 -46 -51 1 -76 -13 -76 -43 0 -36 35 -55
103 -55 67 0 121 24 161 70 33 39 33 71 1 126 -28 48 -79 82 -163 109 -57 18
-68 31 -58 68 12 50 99 72 169 42 38 -16 47 -12 47 20 0 61 -121 105 -200 74z"/>
<path d="M1493 730 c-57 -25 -132 -96 -154 -145 -36 -78 -18 -187 40 -239 12
-11 41 -21 69 -24 60 -5 97 12 164 79 29 29 50 44 53 36 41 -117 62 -157 84
-157 4 0 16 9 25 19 16 18 16 30 -14 222 -17 112 -34 207 -39 212 -5 5 -48 10
-97 12 -72 4 -97 1 -131 -15z m130 -81 c11 -15 13 -29 7 -51 -24 -81 -117
-188 -164 -188 -59 0 -74 88 -27 162 55 87 150 126 184 77z"/>
<path d="M3642 727 c-19 -23 -34 -116 -30 -186 7 -112 47 -167 140 -192 53
-14 86 -8 126 26 17 14 32 25 35 25 3 0 11 -17 17 -37 7 -21 19 -46 28 -55 19
-23 61 -23 69 -1 6 16 -24 364 -34 390 -3 8 -14 18 -24 24 -37 19 -55 -4 -79
-101 -30 -122 -57 -174 -92 -178 -36 -4 -65 12 -84 50 -13 24 -14 47 -9 108 9
102 1 140 -30 140 -12 0 -27 -6 -33 -13z"/>
<path d="M2632 688 c-5 -7 -39 -76 -75 -153 -36 -77 -69 -141 -74 -142 -11 -4
-52 94 -77 179 -16 56 -38 80 -63 71 -36 -13 3 -194 67 -306 l30 -53 -35 -97
c-38 -105 -43 -148 -21 -166 39 -32 76 36 205 382 92 243 100 275 80 288 -19
12 -25 11 -37 -3z"/>
</g>
</svg>
